<?xml version="1.0" encoding="iso-8859-1"?>
<!-- Generator: Adobe Illustrator 16.0.0, SVG Export Plug-In . SVG Version: 6.00 Build 0)  -->
<!DOCTYPE svg PUBLIC "-//W3C//DTD SVG 1.1//EN" "http://www.w3.org/Graphics/SVG/1.1/DTD/svg11.dtd">
<svg version="1.1" id="Layer_1" xmlns="http://www.w3.org/2000/svg" xmlns:xlink="http://www.w3.org/1999/xlink" x="0px" y="0px"
	 width="300px" height="300px" viewBox="0 0 300 300" style="enable-background:new 0 0 300 300;" xml:space="preserve">

	 <style>


	 circle:hover {
	  fill: #adadad;
	 }


	 </style>
<circle cx="150" cy="150" r="148.67"/>
<path style="fill:none;stroke:#FFFFFF;stroke-miterlimit:10;" d="M150,1.211c78.766,0.683,142.078,66.623,141.411,147.28
	c-0.534,64.526-52.049,116.391-115.062,115.845c-50.411-0.438-90.93-42.64-90.503-94.26c0.341-41.297,33.311-74.491,73.639-74.141
	c32.263,0.28,58.195,27.289,57.922,60.326c-0.219,26.43-21.318,47.674-47.129,47.449c-20.648-0.179-37.245-17.464-37.07-38.608
	c0.14-16.915,13.644-30.511,30.163-30.368c13.215,0.115,23.837,11.177,23.725,24.709c-0.089,10.825-8.732,19.527-19.304,19.436"/>
</svg>
