<?xml version="1.0" encoding="iso-8859-1"?>
<!-- Generator: Adobe Illustrator 16.0.0, SVG Export Plug-In . SVG Version: 6.00 Build 0)  -->
<!DOCTYPE svg PUBLIC "-//W3C//DTD SVG 1.1//EN" "http://www.w3.org/Graphics/SVG/1.1/DTD/svg11.dtd">
<svg version="1.1" id="Layer_1" xmlns="http://www.w3.org/2000/svg" xmlns:xlink="http://www.w3.org/1999/xlink" x="0px" y="0px"
	 width="300px" height="300px" viewBox="0 0 300 300" style="enable-background:new 0 0 300 300;" xml:space="preserve">
	 <style>


	 polygon:hover {
	  fill: #adadad;
	 }


	 </style>
<polygon points="75.775,279 1.55,150.5 75.775,22 224.225,22 298.45,150.5 224.225,279 "/>
<polygon style="fill:#FFFFFF;" points="25.966,195 0.383,150.5 25.966,106 77.133,106 102.717,150.5 77.133,195 "/>
<polygon style="fill:#FFFFFF;" points="221.967,195 196.383,150.5 221.967,106 273.133,106 298.717,150.5 273.133,195 "/>
<polygon style="fill:#FFFFFF;" points="75.966,110 50.383,65.5 75.966,21 127.133,21 152.717,65.5 127.133,110 "/>
<polygon style="fill:#FFFFFF;" points="173.967,110 148.383,65.5 173.967,21 225.133,21 250.717,65.5 225.133,110 "/>
<polygon style="fill:#FFFFFF;" points="173.967,279 148.383,234.5 173.967,190 225.133,190 250.717,234.5 225.133,279 "/>
<polygon style="fill:#FFFFFF;" points="74.967,279 49.383,234.5 74.967,190 126.133,190 151.717,234.5 126.133,279 "/>
<polygon style="fill:#FFFFFF;" points="123.967,195 98.383,150.5 123.967,106 175.133,106 200.717,150.5 175.133,195 "/>
</svg>
